<?xml version="1.0" encoding="utf-8"?>
<!-- Generator: Adobe Illustrator 24.0.1, SVG Export Plug-In . SVG Version: 6.00 Build 0)  -->
<svg version="1.1" id="Layer_1" xmlns="http://www.w3.org/2000/svg" xmlns:xlink="http://www.w3.org/1999/xlink" x="0px" y="0px"
	 viewBox="0 0 100 60" style="enable-background:new 0 0 100 60;" xml:space="preserve">
<style type="text/css">
	.st0{fill:#F7941D;}
	.st1{fill:#FFFFFF;}
	.st2{fill:#6D6E71;}
	.st3{fill:#939598;}
	.st4{fill:none;stroke:#F7941D;stroke-width:2;stroke-linecap:round;stroke-linejoin:round;}
	.st5{fill:none;stroke:#F7941D;stroke-width:2;stroke-linecap:round;stroke-linejoin:round;stroke-dasharray:4.7161,3.7729;}
</style>
<g>
	<path class="st0" d="M25.6,12.4c0,0,3.7-4,7.3-4.1S40,7.6,45.4,7.7s9.3,0,20.3,6.4c0,0,11.1,0.8,15.5,4.6c0,0,1.7,5.8-0.6,6.8
		s-5,1.1-5,1.1s1-3.5-0.6-5.4c-1.6-1.8-3.7-3.3-7.2-2.1c-3.4,1.2-3.8,6.1-2.7,7.5H35.8c0,0,2-2.7-0.7-6c-2.7-3.3-6.8-1.5-7.5-1.1
		c-0.7,0.4-3,2.6-2.5,5.8c0,0-3.1,0.9-4.1-1.3c-0.9-2.2-0.4-5.9,0-6.8C21.5,16.3,25.6,12.4,25.6,12.4z"/>
	<path class="st1" d="M42,8.6c0,0-9.5,0.8-10.6,1.4c-1.2,0.7-3.1,2.3-2.7,3.1c0.4,0.8,13.9,1.3,13.8,0.4C42.4,12.7,42.7,8.9,42,8.6z
		"/>
	<path class="st1" d="M43.8,8.6c0,0,12.4-0.5,15.4,4.2c0,0-2.2,0.9-1.5,2.2c0,0-13.2-0.2-13.5-1C44.1,14.1,43.3,9.9,43.8,8.6z"/>
	<path class="st0" d="M30.6,20.2c-2.4,0-4.3,1.9-4.3,4.3c0,2.4,1.9,4.3,4.3,4.3s4.3-1.9,4.3-4.3C34.9,22.1,33,20.2,30.6,20.2z
		 M30.6,27.6c-1.8,0-3.2-1.4-3.2-3.2c0-1.8,1.4-3.2,3.2-3.2c1.8,0,3.2,1.4,3.2,3.2C33.8,26.2,32.4,27.6,30.6,27.6z"/>
	<path class="st0" d="M70.3,20.2c-2.4,0-4.3,1.9-4.3,4.3c0,2.4,1.9,4.3,4.3,4.3c2.4,0,4.3-1.9,4.3-4.3
		C74.6,22.1,72.7,20.2,70.3,20.2z M70.3,27.6c-1.8,0-3.2-1.4-3.2-3.2c0-1.8,1.4-3.2,3.2-3.2c1.8,0,3.2,1.4,3.2,3.2
		C73.5,26.2,72.1,27.6,70.3,27.6z"/>
</g>
<g>
	<path class="st2" d="M22.1,43.5l1.2-0.1c0.1,0.4,0.2,0.7,0.4,0.9s0.5,0.3,0.9,0.3c0.4,0,0.7-0.1,0.9-0.3c0.2-0.2,0.3-0.4,0.3-0.6
		c0-0.1,0-0.3-0.1-0.4c-0.1-0.1-0.2-0.2-0.4-0.3c-0.1,0-0.5-0.1-1-0.3c-0.7-0.2-1.1-0.4-1.4-0.6c-0.4-0.3-0.6-0.7-0.6-1.2
		c0-0.3,0.1-0.6,0.3-0.9c0.2-0.3,0.4-0.5,0.8-0.6c0.3-0.1,0.7-0.2,1.2-0.2c0.8,0,1.3,0.2,1.7,0.5c0.4,0.3,0.6,0.8,0.6,1.3l-1.2,0.1
		c-0.1-0.3-0.2-0.5-0.3-0.7s-0.4-0.2-0.8-0.2c-0.4,0-0.6,0.1-0.8,0.2c-0.1,0.1-0.2,0.2-0.2,0.4c0,0.1,0.1,0.3,0.2,0.4
		c0.2,0.1,0.5,0.3,1.1,0.4c0.6,0.1,1,0.3,1.3,0.4c0.3,0.2,0.5,0.4,0.7,0.6c0.2,0.3,0.2,0.6,0.2,1c0,0.3-0.1,0.7-0.3,1
		c-0.2,0.3-0.5,0.5-0.8,0.7c-0.4,0.1-0.8,0.2-1.3,0.2c-0.8,0-1.4-0.2-1.8-0.5C22.4,44.7,22.2,44.2,22.1,43.5z"/>
	<path class="st2" d="M31,45.5v-0.7c-0.2,0.2-0.4,0.4-0.6,0.6c-0.3,0.1-0.5,0.2-0.8,0.2c-0.3,0-0.6-0.1-0.8-0.2s-0.4-0.3-0.5-0.5
		s-0.2-0.6-0.2-1v-2.8h1.2v2c0,0.6,0,1,0.1,1.1c0,0.1,0.1,0.3,0.2,0.3s0.3,0.1,0.4,0.1c0.2,0,0.4-0.1,0.5-0.2
		c0.2-0.1,0.3-0.2,0.3-0.4s0.1-0.6,0.1-1.2v-1.9h1.2v4.4H31z"/>
	<path class="st2" d="M33.2,45.8l1.3,0.2c0,0.2,0.1,0.3,0.2,0.3c0.1,0.1,0.3,0.1,0.5,0.1c0.3,0,0.5,0,0.7-0.1
		c0.1-0.1,0.2-0.2,0.2-0.3c0-0.1,0.1-0.3,0.1-0.5v-0.6c-0.3,0.5-0.8,0.7-1.3,0.7c-0.6,0-1.1-0.3-1.4-0.8c-0.3-0.4-0.4-0.9-0.4-1.5
		c0-0.7,0.2-1.3,0.5-1.7c0.4-0.4,0.8-0.6,1.3-0.6c0.5,0,1,0.2,1.3,0.7v-0.6h1.1v4c0,0.5,0,0.9-0.1,1.2c-0.1,0.3-0.2,0.5-0.4,0.6
		s-0.4,0.3-0.6,0.3s-0.6,0.1-1,0.1c-0.7,0-1.3-0.1-1.6-0.4c-0.3-0.3-0.5-0.6-0.5-1C33.2,45.9,33.2,45.8,33.2,45.8z M34.2,43.2
		c0,0.5,0.1,0.8,0.3,1c0.2,0.2,0.4,0.3,0.7,0.3c0.3,0,0.5-0.1,0.7-0.3c0.2-0.2,0.3-0.6,0.3-1c0-0.5-0.1-0.8-0.3-1s-0.4-0.3-0.7-0.3
		c-0.3,0-0.5,0.1-0.7,0.3C34.3,42.4,34.2,42.7,34.2,43.2z"/>
	<path class="st2" d="M39.4,42.4l-1.1-0.2c0.1-0.4,0.3-0.7,0.6-0.9c0.3-0.2,0.7-0.3,1.3-0.3c0.5,0,0.9,0.1,1.2,0.2s0.4,0.3,0.5,0.5
		c0.1,0.2,0.2,0.5,0.2,1l0,1.4c0,0.4,0,0.7,0.1,0.9c0,0.2,0.1,0.4,0.2,0.6h-1.2c0-0.1-0.1-0.2-0.1-0.3c0-0.1,0-0.1,0-0.1
		c-0.2,0.2-0.4,0.3-0.6,0.4s-0.5,0.1-0.7,0.1c-0.5,0-0.8-0.1-1.1-0.4s-0.4-0.6-0.4-0.9c0-0.2,0.1-0.5,0.2-0.7
		c0.1-0.2,0.3-0.3,0.5-0.4s0.5-0.2,0.9-0.3c0.5-0.1,0.9-0.2,1.1-0.3v-0.1c0-0.2-0.1-0.4-0.2-0.5c-0.1-0.1-0.3-0.1-0.6-0.1
		c-0.2,0-0.4,0-0.5,0.1C39.6,42.1,39.5,42.2,39.4,42.4z M41,43.4c-0.1,0-0.4,0.1-0.7,0.2c-0.3,0.1-0.5,0.1-0.6,0.2
		c-0.2,0.1-0.2,0.2-0.2,0.4c0,0.2,0.1,0.3,0.2,0.4c0.1,0.1,0.3,0.2,0.5,0.2c0.2,0,0.4-0.1,0.6-0.2c0.1-0.1,0.2-0.2,0.3-0.4
		c0-0.1,0-0.3,0-0.6V43.4z"/>
	<path class="st2" d="M44.4,45.5h-1.2v-4.4h1.1v0.6c0.2-0.3,0.4-0.5,0.5-0.6C45,41,45.1,41,45.3,41c0.3,0,0.5,0.1,0.8,0.2l-0.4,1
		c-0.2-0.1-0.4-0.2-0.5-0.2c-0.2,0-0.3,0-0.4,0.1s-0.2,0.3-0.3,0.5c-0.1,0.2-0.1,0.7-0.1,1.5V45.5z"/>
	<path class="st2" d="M46.6,45.5v-6.1h1.2v6.1H46.6z"/>
	<path class="st2" d="M49.9,42.4l-1.1-0.2c0.1-0.4,0.3-0.7,0.6-0.9c0.3-0.2,0.7-0.3,1.3-0.3c0.5,0,0.9,0.1,1.2,0.2s0.4,0.3,0.5,0.5
		c0.1,0.2,0.2,0.5,0.2,1l0,1.4c0,0.4,0,0.7,0.1,0.9c0,0.2,0.1,0.4,0.2,0.6h-1.2c0-0.1-0.1-0.2-0.1-0.3c0-0.1,0-0.1,0-0.1
		c-0.2,0.2-0.4,0.3-0.6,0.4s-0.5,0.1-0.7,0.1c-0.5,0-0.8-0.1-1.1-0.4s-0.4-0.6-0.4-0.9c0-0.2,0.1-0.5,0.2-0.7
		c0.1-0.2,0.3-0.3,0.5-0.4s0.5-0.2,0.9-0.3c0.5-0.1,0.9-0.2,1.1-0.3v-0.1c0-0.2-0.1-0.4-0.2-0.5c-0.1-0.1-0.3-0.1-0.6-0.1
		c-0.2,0-0.4,0-0.5,0.1C50.1,42.1,50,42.2,49.9,42.4z M51.5,43.4c-0.1,0-0.4,0.1-0.7,0.2c-0.3,0.1-0.5,0.1-0.6,0.2
		c-0.2,0.1-0.2,0.2-0.2,0.4c0,0.2,0.1,0.3,0.2,0.4c0.1,0.1,0.3,0.2,0.5,0.2c0.2,0,0.4-0.1,0.6-0.2c0.1-0.1,0.2-0.2,0.3-0.4
		c0-0.1,0-0.3,0-0.6V43.4z"/>
	<path class="st2" d="M57.8,45.5h-1.2v-2.2c0-0.5,0-0.8-0.1-0.9s-0.1-0.2-0.2-0.3c-0.1-0.1-0.2-0.1-0.4-0.1c-0.2,0-0.4,0.1-0.5,0.2
		c-0.2,0.1-0.3,0.3-0.3,0.4c-0.1,0.2-0.1,0.5-0.1,1v2h-1.2v-4.4h1.1v0.6c0.4-0.5,0.9-0.7,1.5-0.7c0.3,0,0.5,0,0.7,0.1
		c0.2,0.1,0.4,0.2,0.5,0.4c0.1,0.1,0.2,0.3,0.2,0.5c0,0.2,0.1,0.4,0.1,0.8V45.5z"/>
	<path class="st2" d="M63,45.5H62v-0.6c-0.2,0.3-0.4,0.4-0.6,0.6s-0.5,0.2-0.7,0.2c-0.5,0-0.9-0.2-1.3-0.6c-0.4-0.4-0.5-1-0.5-1.7
		c0-0.7,0.2-1.3,0.5-1.7c0.4-0.4,0.8-0.6,1.3-0.6c0.5,0,0.9,0.2,1.3,0.6v-2.2H63V45.5z M59.9,43.2c0,0.5,0.1,0.8,0.2,1
		c0.2,0.3,0.5,0.5,0.8,0.5c0.3,0,0.5-0.1,0.7-0.3s0.3-0.6,0.3-1c0-0.5-0.1-0.9-0.3-1.1c-0.2-0.2-0.4-0.3-0.7-0.3
		c-0.3,0-0.5,0.1-0.7,0.3S59.9,42.7,59.9,43.2z"/>
	<path class="st2" d="M70.5,43.2l1.2,0.4c-0.2,0.7-0.5,1.2-0.9,1.5c-0.4,0.3-1,0.5-1.6,0.5c-0.8,0-1.5-0.3-2-0.8
		c-0.5-0.6-0.8-1.3-0.8-2.3c0-1,0.3-1.8,0.8-2.4s1.2-0.8,2.1-0.8c0.7,0,1.3,0.2,1.8,0.7c0.3,0.3,0.5,0.6,0.6,1.1l-1.2,0.3
		c-0.1-0.3-0.2-0.6-0.4-0.7s-0.5-0.3-0.8-0.3c-0.5,0-0.8,0.2-1.1,0.5c-0.3,0.3-0.4,0.8-0.4,1.6c0,0.8,0.1,1.3,0.4,1.6
		s0.6,0.5,1.1,0.5c0.3,0,0.6-0.1,0.8-0.3C70.2,44,70.4,43.7,70.5,43.2z"/>
	<path class="st2" d="M73.6,42.4l-1.1-0.2c0.1-0.4,0.3-0.7,0.6-0.9c0.3-0.2,0.7-0.3,1.3-0.3c0.5,0,0.9,0.1,1.2,0.2s0.4,0.3,0.5,0.5
		c0.1,0.2,0.2,0.5,0.2,1l0,1.4c0,0.4,0,0.7,0.1,0.9c0,0.2,0.1,0.4,0.2,0.6h-1.2c0-0.1-0.1-0.2-0.1-0.3c0-0.1,0-0.1,0-0.1
		c-0.2,0.2-0.4,0.3-0.6,0.4s-0.5,0.1-0.7,0.1c-0.5,0-0.8-0.1-1.1-0.4s-0.4-0.6-0.4-0.9c0-0.2,0.1-0.5,0.2-0.7
		c0.1-0.2,0.3-0.3,0.5-0.4s0.5-0.2,0.9-0.3c0.5-0.1,0.9-0.2,1.1-0.3v-0.1c0-0.2-0.1-0.4-0.2-0.5c-0.1-0.1-0.3-0.1-0.6-0.1
		c-0.2,0-0.4,0-0.5,0.1C73.8,42.1,73.7,42.2,73.6,42.4z M75.2,43.4c-0.1,0-0.4,0.1-0.7,0.2c-0.3,0.1-0.5,0.1-0.6,0.2
		c-0.2,0.1-0.2,0.2-0.2,0.4c0,0.2,0.1,0.3,0.2,0.4c0.1,0.1,0.3,0.2,0.5,0.2c0.2,0,0.4-0.1,0.6-0.2c0.1-0.1,0.2-0.2,0.3-0.4
		c0-0.1,0-0.3,0-0.6V43.4z"/>
	<path class="st2" d="M78.7,45.5h-1.2v-4.4h1.1v0.6c0.2-0.3,0.4-0.5,0.5-0.6c0.1-0.1,0.3-0.1,0.5-0.1c0.3,0,0.5,0.1,0.8,0.2l-0.4,1
		c-0.2-0.1-0.4-0.2-0.5-0.2c-0.2,0-0.3,0-0.4,0.1s-0.2,0.3-0.3,0.5c-0.1,0.2-0.1,0.7-0.1,1.5V45.5z"/>
	<path class="st3" d="M41.3,52.5v-4.7h2c0.5,0,0.9,0,1.1,0.1s0.4,0.2,0.5,0.5c0.1,0.2,0.2,0.5,0.2,0.7c0,0.4-0.1,0.6-0.3,0.9
		c-0.2,0.2-0.5,0.4-0.9,0.4c0.2,0.1,0.4,0.3,0.5,0.4c0.1,0.1,0.3,0.4,0.5,0.8l0.6,0.9h-1.1l-0.7-1c-0.2-0.4-0.4-0.6-0.5-0.7
		s-0.2-0.2-0.3-0.2c-0.1,0-0.3-0.1-0.5-0.1h-0.2v2H41.3z M42.3,49.8H43c0.5,0,0.7,0,0.9-0.1c0.1,0,0.2-0.1,0.3-0.2s0.1-0.2,0.1-0.4
		c0-0.2,0-0.3-0.1-0.4c-0.1-0.1-0.2-0.2-0.4-0.2c-0.1,0-0.3,0-0.7,0h-0.7V49.8z"/>
	<path class="st3" d="M48.1,51.5l0.9,0.2c-0.1,0.3-0.3,0.6-0.5,0.8s-0.6,0.3-0.9,0.3c-0.6,0-1-0.2-1.3-0.6c-0.2-0.3-0.3-0.7-0.3-1.2
		c0-0.6,0.1-1,0.4-1.3c0.3-0.3,0.7-0.5,1.1-0.5c0.5,0,0.9,0.2,1.2,0.5s0.4,0.9,0.4,1.5h-2.3c0,0.3,0.1,0.5,0.2,0.6s0.3,0.2,0.5,0.2
		c0.1,0,0.3,0,0.4-0.1C48,51.8,48.1,51.6,48.1,51.5z M48.2,50.5c0-0.3-0.1-0.5-0.2-0.6c-0.1-0.1-0.3-0.2-0.5-0.2
		c-0.2,0-0.4,0.1-0.5,0.2s-0.2,0.3-0.2,0.6H48.2z"/>
	<path class="st3" d="M52.9,52.5H52v-1.7c0-0.4,0-0.6-0.1-0.7c0-0.1-0.1-0.2-0.2-0.3s-0.2-0.1-0.3-0.1c-0.2,0-0.3,0-0.4,0.1
		s-0.2,0.2-0.3,0.3c0,0.1-0.1,0.4-0.1,0.8v1.6h-0.9v-3.4h0.8v0.5c0.3-0.4,0.7-0.6,1.1-0.6c0.2,0,0.4,0,0.5,0.1
		c0.2,0.1,0.3,0.2,0.4,0.3s0.1,0.2,0.2,0.4c0,0.1,0,0.3,0,0.6V52.5z"/>
	<path class="st3" d="M55.5,49.1v0.7h-0.6v1.4c0,0.3,0,0.4,0,0.5s0,0.1,0.1,0.1c0,0,0.1,0,0.2,0c0.1,0,0.2,0,0.4-0.1l0.1,0.7
		c-0.2,0.1-0.4,0.1-0.7,0.1c-0.2,0-0.3,0-0.4-0.1c-0.1-0.1-0.2-0.1-0.3-0.2C54,52.2,54,52.1,54,52c0-0.1,0-0.3,0-0.6v-1.5h-0.4v-0.7
		h0.4v-0.7l0.9-0.5v1.2H55.5z"/>
	<path class="st3" d="M56.8,50.2L56,50c0.1-0.3,0.3-0.6,0.5-0.7s0.6-0.2,1-0.2c0.4,0,0.7,0,0.9,0.1s0.3,0.2,0.4,0.4
		c0.1,0.1,0.1,0.4,0.1,0.8l0,1.1c0,0.3,0,0.5,0,0.7c0,0.1,0.1,0.3,0.2,0.5h-0.9c0-0.1-0.1-0.1-0.1-0.3c0-0.1,0-0.1,0-0.1
		c-0.2,0.2-0.3,0.3-0.5,0.3s-0.4,0.1-0.6,0.1c-0.4,0-0.6-0.1-0.8-0.3s-0.3-0.4-0.3-0.7c0-0.2,0-0.4,0.1-0.5s0.2-0.3,0.4-0.3
		s0.4-0.2,0.7-0.2c0.4-0.1,0.7-0.2,0.9-0.2v-0.1c0-0.2,0-0.3-0.1-0.4s-0.2-0.1-0.5-0.1c-0.2,0-0.3,0-0.4,0.1S56.8,50,56.8,50.2z
		 M58,50.9c-0.1,0-0.3,0.1-0.6,0.1S57,51.1,57,51.2c-0.1,0.1-0.2,0.2-0.2,0.3c0,0.1,0,0.2,0.1,0.3c0.1,0.1,0.2,0.1,0.4,0.1
		c0.2,0,0.3-0.1,0.5-0.2c0.1-0.1,0.2-0.2,0.2-0.3c0-0.1,0-0.2,0-0.4V50.9z"/>
	<path class="st3" d="M59.8,52.5v-4.7h0.9v4.7H59.8z"/>
</g>
<g>
	<g>
		<line class="st4" x1="17.1" y1="34.3" x2="19.6" y2="34.3"/>
		<line class="st5" x1="23.4" y1="34.3" x2="80.9" y2="34.3"/>
		<line class="st4" x1="82.8" y1="34.3" x2="85.3" y2="34.3"/>
	</g>
</g>
</svg>
